<svg width="30" height="30" viewBox="0 0 30 30" fill="none" xmlns="http://www.w3.org/2000/svg">
<path d="M11.2499 22.5C11.2493 22.2079 11.3511 21.9249 11.5374 21.7L17.1374 15L11.7374 8.2875C11.6336 8.15964 11.556 8.01252 11.5093 7.8546C11.4625 7.69668 11.4473 7.53106 11.4648 7.36728C11.4822 7.20349 11.5318 7.04476 11.6108 6.90022C11.6898 6.75567 11.7965 6.62816 11.9249 6.525C12.0528 6.42117 12.1999 6.34363 12.3578 6.29684C12.5157 6.25005 12.6814 6.23494 12.8451 6.25236C13.0089 6.26978 13.1677 6.31941 13.3122 6.39837C13.4568 6.47734 13.5843 6.5841 13.6874 6.7125L19.7249 14.2125C19.9088 14.4362 20.0093 14.7167 20.0093 15.0063C20.0093 15.2958 19.9088 15.5763 19.7249 15.8L13.4749 23.3C13.37 23.4266 13.2411 23.5312 13.0957 23.6079C12.9502 23.6846 12.7911 23.7318 12.6274 23.7469C12.4637 23.762 12.2986 23.7447 12.1416 23.6959C11.9846 23.6471 11.8387 23.5678 11.7124 23.4625C11.569 23.3462 11.4532 23.1995 11.3732 23.0331C11.2932 22.8667 11.2511 22.6846 11.2499 22.5Z" fill="#976464"/>
</svg>
