<svg width="100" height="100" viewBox="0 0 100 100" fill="none" xmlns="http://www.w3.org/2000/svg">
<path fill-rule="evenodd" clip-rule="evenodd" d="M44.7022 0.0359946C57.2583 -0.625697 67.7558 7.94977 77.1149 16.3463C87.204 25.3978 98.0164 35.2412 99.0107 48.7591C100.056 62.9713 92.6299 76.5421 82.2615 86.3184C72.1863 95.8184 58.5418 100.442 44.7022 99.9667C31.3339 99.5071 18.3717 93.9543 9.63954 83.8217C1.44695 74.3151 -0.574574 61.2562 0.57242 48.7591C1.61063 37.4472 7.90896 28.0109 15.5346 19.5915C23.7035 10.5724 32.5504 0.676374 44.7022 0.0359946Z" fill="url(#paint0_linear_1453_4)" fill-opacity="0.94"/>
<path d="M74.4349 54.6094C72.8021 52.065 70.5016 50.029 67.7822 48.7218C67.1598 48.4225 66.413 48.6846 66.114 49.3068C65.8148 49.929 66.0767 50.6758 66.699 50.9749C71.4378 53.2529 74.4997 58.1203 74.4997 63.375C74.4997 65.6235 73.9454 67.8534 72.8971 69.8239C72.5728 70.4333 72.8039 71.1903 73.4134 71.5145C73.6004 71.614 73.8014 71.6613 73.9994 71.6613C74.4467 71.6613 74.8793 71.4205 75.1041 70.9981C76.3442 68.6676 76.9997 66.0315 76.9997 63.375C76.9997 60.255 76.1128 57.2239 74.4349 54.6094Z" fill="#424242"/>
<path d="M54.8006 75.7752C50.0619 73.4971 47 68.6297 47 63.3751C47 61.1266 47.5542 58.8967 48.6026 56.9262C48.9269 56.3168 48.6957 55.5598 48.0862 55.2356C47.477 54.9113 46.7197 55.1425 46.3956 55.752C45.1555 58.0826 44.5 60.7186 44.5 63.3751C44.5 66.4951 45.3869 69.5261 47.0647 72.1407C48.6976 74.6851 50.9981 76.721 53.7175 78.0284C53.8921 78.1124 54.0766 78.152 54.2582 78.152C54.7237 78.152 55.1705 77.8909 55.3857 77.4434C55.6846 76.8212 55.4229 76.0743 54.8006 75.7752Z" fill="#424242"/>
<path d="M66.426 42.896C66.2739 42.5335 66.0875 42.1918 65.8707 41.875H69.1249C72.2954 41.875 74.8749 39.2955 74.8749 36.125C74.8749 32.9545 72.2954 30.375 69.1249 30.375H59.1149C59.7513 29.4497 60.1249 28.3304 60.1249 27.125C60.1249 23.9545 57.5454 21.375 54.3749 21.375H23.75C20.5795 21.375 18 23.9545 18 27.125C18 30.2955 20.5795 32.875 23.75 32.875H33.76C33.1236 33.8002 32.75 34.9196 32.75 36.125C32.75 37.3303 33.1235 38.4497 33.76 39.375H30.5C27.3295 39.375 24.75 41.9545 24.75 45.125C24.75 46.9458 25.6017 48.5707 26.9269 49.6249C25.6017 50.6792 24.75 52.3041 24.75 54.1249C24.75 55.9458 25.6017 57.5707 26.9269 58.6249C25.6017 59.6792 24.75 61.3041 24.75 63.1249C24.75 64.9458 25.6017 66.5707 26.9269 67.6249C25.6017 68.6792 24.75 70.304 24.75 72.1249C24.75 75.2954 27.3295 77.8749 30.5 77.8749H45.2312C49.1119 82.0258 54.6327 84.625 60.75 84.625C72.4673 84.625 82 75.0923 82 63.375C82 53.6229 75.3963 45.3853 66.426 42.896ZM69.1249 32.875C70.917 32.875 72.3749 34.333 72.3749 36.125C72.3749 37.917 70.917 39.375 69.1249 39.375H61.1249H38.5C36.7078 39.375 35.25 37.917 35.25 36.125C35.25 34.333 36.7078 32.875 38.5 32.875H69.1249ZM23.75 30.375C21.9579 30.375 20.5 28.917 20.5 27.125C20.5 25.333 21.9579 23.875 23.75 23.875H54.3749C56.1671 23.875 57.6249 25.333 57.6249 27.125C57.6249 28.917 56.1671 30.375 54.3749 30.375H23.75ZM30.5 41.875H61.1249C61.6284 41.875 62.1105 41.992 62.543 42.2015C61.9518 42.1518 61.354 42.1251 60.75 42.1251C54.8819 42.1251 49.5619 44.5162 45.7127 48.375H30.5C28.708 48.375 27.25 46.917 27.25 45.125C27.25 43.333 28.708 41.875 30.5 41.875ZM30.5 50.8749H43.5768C42.1578 52.8191 41.0607 55.0118 40.364 57.3749H30.5C28.7079 57.3749 27.25 55.9171 27.25 54.1249C27.25 52.3329 28.7079 50.8749 30.5 50.8749ZM30.5 59.8749H39.79C39.6003 61.0141 39.5001 62.1829 39.5001 63.375C39.5001 64.3933 39.5737 65.3945 39.7128 66.3749H30.5C28.7079 66.3749 27.25 64.917 27.25 63.1249C27.25 61.3328 28.7079 59.8749 30.5 59.8749ZM30.5 75.3749C28.7079 75.3749 27.25 73.917 27.25 72.1249C27.25 70.3328 28.7079 68.8749 30.5 68.8749H40.2232C40.854 71.2265 41.8786 73.4182 43.2223 75.3749H30.5ZM60.75 82.125C50.4113 82.125 42.0001 73.7138 42.0001 63.375C42.0001 53.0363 50.4113 44.6251 60.75 44.6251C71.0888 44.6251 79.5 53.0363 79.5 63.375C79.5 73.7138 71.0888 82.125 60.75 82.125Z" fill="#424242"/>
<defs>
<linearGradient id="paint0_linear_1453_4" x1="0.0246637" y1="106.657" x2="92.7135" y2="53.2338" gradientUnits="userSpaceOnUse">
<stop stop-color="#C5C5A8"/>
<stop offset="1" stop-color="#E2E1CF"/>
<stop offset="1" stop-color="#E2E1CF"/>
</linearGradient>
</defs>
</svg>
