<?xml version="1.0" encoding="UTF-8"?>
<svg xmlns="http://www.w3.org/2000/svg" xmlns:xlink="http://www.w3.org/1999/xlink" width="12px" height="12px" viewBox="0 0 12 12" version="1.1">
<g id="surface1">
<path style=" stroke:none;fill-rule:nonzero;fill:#976464;fill-opacity:1;" d="M 7.066406 5.996094 L 11.914062 1.148438 C 12.015625 1.042969 12.015625 0.875 11.914062 0.769531 L 11.222656 0.078125 C 11.171875 0.0273438 11.101562 0 11.03125 0 C 10.960938 0 10.894531 0.0273438 10.84375 0.078125 L 5.996094 4.925781 L 1.148438 0.078125 C 1.046875 -0.0234375 0.871094 -0.0234375 0.769531 0.078125 L 0.078125 0.769531 C -0.0273438 0.875 -0.0273438 1.042969 0.078125 1.148438 L 4.925781 5.996094 L 0.078125 10.84375 C -0.0273438 10.945312 -0.0273438 11.117188 0.078125 11.21875 L 0.769531 11.914062 C 0.820312 11.960938 0.886719 11.992188 0.960938 11.992188 C 1.03125 11.992188 1.097656 11.960938 1.148438 11.914062 L 5.996094 7.066406 L 10.84375 11.914062 C 10.894531 11.960938 10.960938 11.992188 11.03125 11.992188 C 11.101562 11.992188 11.171875 11.960938 11.222656 11.914062 L 11.914062 11.21875 C 12.015625 11.117188 12.015625 10.945312 11.914062 10.84375 Z M 7.066406 5.996094 "/>
</g>
</svg>
