<svg width="95" height="101" viewBox="0 0 95 101" fill="none" xmlns="http://www.w3.org/2000/svg">
<path fill-rule="evenodd" clip-rule="evenodd" d="M53.9447 3.54175e-06C67.6087 -0.00591471 80.5823 7.40574 88.9015 18.2452C96.38 27.9894 94.9553 40.9201 94.7769 53.202C94.6024 65.2059 95.7667 78.0887 87.9001 87.1574C79.6348 96.6857 66.5481 100.782 53.9447 100.274C41.8061 99.7838 31.7742 92.514 22.6235 84.5232C12.5448 75.7221 0.766958 66.5628 0.039851 53.202C-0.708642 39.4482 9.21474 27.9512 19.0182 18.2755C28.7402 8.68035 40.2852 0.00591987 53.9447 3.54175e-06Z" fill="url(#paint0_linear_1453_3)" fill-opacity="0.94"/>
<g clip-path="url(#clip0_1453_3)">
<path d="M82.3999 24.2C79.8594 24.2 77.7999 26.2595 77.7999 28.8C77.805 29.5699 78.006 30.3258 78.3841 30.9965L76.114 33.1286C74.1479 30.3029 71.6947 27.8497 68.869 25.8836L71.0034 23.6158C71.6741 23.9939 72.43 24.1949 73.1999 24.2C75.3173 24.2146 77.175 22.7917 77.7124 20.7436C78.2499 18.6955 77.3301 16.5437 75.4784 15.5169C73.6266 14.49 71.3143 14.8495 69.8617 16.3901C68.4091 17.9306 68.186 20.2601 69.3198 22.0483L66.8956 24.6301C55.3418 17.9281 40.6931 20.0725 31.5452 29.8051C22.3972 39.5376 21.1632 54.2909 28.5672 65.4079L18.3115 76.3122C17.8765 76.7752 17.8991 77.5033 18.3621 77.9383C18.8252 78.3734 19.5532 78.3507 19.9882 77.8877L29.9461 67.2985C31.3418 69.0623 32.9376 70.658 34.7013 72.0538L24.1121 82.0116C23.6491 82.4467 23.6265 83.1747 24.0615 83.6377C24.4966 84.1008 25.2246 84.1234 25.6876 83.6883L36.5919 73.4326C48.6142 81.4478 64.7216 79.2688 74.182 68.3473L79.012 68.7625C80.3179 68.876 81.3027 69.9979 81.246 71.3075C81.1893 72.6171 80.1112 73.6497 78.8004 73.65C76.3435 73.6525 74.3524 75.6436 74.3499 78.1005V82.85C74.3499 83.4851 74.8648 84 75.4999 84C76.135 84 76.6499 83.4851 76.6499 82.85V78.1005C76.6512 76.9129 77.6139 75.9506 78.8016 75.95C81.3407 75.9444 83.4262 73.9422 83.5351 71.4054C83.6441 68.8686 81.738 66.6949 79.2087 66.4717L75.8898 66.1865C82.4569 57.0198 83.0363 44.8535 77.3698 35.1043L79.9515 32.6801C81.6057 33.7334 83.7457 33.6222 85.2817 32.4032C86.8178 31.1842 87.4122 29.1254 86.7622 27.2753C86.1123 25.4251 84.3609 24.1905 82.3999 24.2ZM73.1999 17.3C74.2334 17.2953 75.1431 17.9806 75.4239 18.9752C75.7046 19.9699 75.2874 21.0297 74.4039 21.566C73.5204 22.1024 72.3877 21.9835 71.6348 21.2755V21.2686L71.621 21.2606C70.9445 20.6123 70.7288 19.6185 71.0758 18.7482C71.4228 17.8779 72.263 17.305 73.1999 17.3ZM28.6017 60.824C47.3146 59.1821 62.5621 45.1184 65.7077 26.5989C67.0624 27.382 68.3451 28.2837 69.5406 29.2933C67.4182 49.1865 50.7004 64.3166 30.6947 64.45C29.9025 63.2984 29.2027 62.086 28.6017 60.824ZM26.0499 49.5C26.0508 47.4209 26.2975 45.3491 26.7847 43.3279C27.5634 46.1242 28.633 48.8311 29.976 51.4044C28.7326 51.764 27.4717 52.0603 26.1982 52.2922C26.1 51.3647 26.0505 50.4327 26.0499 49.5ZM32.1989 50.6833C30.2602 47.0626 28.902 43.1599 28.1739 39.1178C29.0843 36.9994 30.2678 35.0092 31.6941 33.1976C32.6252 38.5743 34.5888 43.7198 37.4763 48.35C35.7774 49.2574 34.0134 50.0373 32.1989 50.6833ZM59.2734 23.9332C60.7417 24.3229 62.1731 24.8401 63.5514 25.4788C60.8325 43.566 45.9074 57.3329 27.6599 58.585C27.1818 57.2751 26.8088 55.9291 26.5444 54.56C42.4959 51.6126 55.2751 39.6542 59.2734 23.9332ZM45.9564 42.2653C42.7597 37.4659 40.6447 32.0289 39.7579 26.3309C40.9854 25.6552 42.2648 25.0784 43.584 24.6059C45.0006 29.3095 47.1898 33.7446 50.0619 37.7297C48.8131 39.3458 47.4405 40.8622 45.9564 42.2653ZM57.0252 23.4456C55.9205 27.8506 54.0489 32.0268 51.496 35.7828C48.9787 32.1525 47.0495 28.1481 45.7793 23.9171C49.4501 22.9508 53.2864 22.7899 57.0252 23.4456ZM37.643 27.6293C38.6819 33.4185 40.9223 38.9257 44.2199 43.796C42.7263 45.0481 41.1423 46.1881 39.4808 47.2069C36.3869 42.2662 34.4136 36.7073 33.6997 30.9217C34.9052 29.7 36.2258 28.5974 37.643 27.6293ZM32.437 66.7063C52.2779 65.7358 68.6768 50.8982 71.621 31.2529C72.981 32.675 74.179 34.2436 75.1929 35.93C72.7831 55.5168 56.1343 70.2244 36.3999 70.2C36.2849 70.2 36.1699 70.2 36.0549 70.2C34.7414 69.1522 33.53 67.9824 32.437 66.7063ZM59.0158 65.7863C62.9107 67.2051 66.9958 68.0339 71.1357 68.245C69.7529 69.6179 68.2234 70.8346 66.5747 71.8732C61.8628 71.7788 57.2055 70.8442 52.8219 69.1132C54.9771 68.1823 57.0492 67.0697 59.0158 65.7874V65.7863ZM73.1436 66.0071C69.1402 65.99 65.1627 65.3653 61.3469 64.1544C62.9341 62.9571 64.433 61.6469 65.8318 60.2341C68.9971 61.2147 72.2213 61.994 75.485 62.5674C74.7958 63.7739 74.0129 64.9244 73.1436 66.0082V66.0071ZM67.5718 58.3676C68.8394 56.9208 70.0048 55.3876 71.0598 53.7791C73.3767 54.6396 75.7617 55.3043 78.1898 55.7663C77.8003 57.3648 77.2612 58.923 76.5798 60.4204C73.5417 59.9027 70.5344 59.2178 67.5718 58.3688V58.3676ZM39.2749 72.3907C42.8423 72.1501 46.3635 71.4478 49.7502 70.3012C53.8311 72.193 58.1904 73.4143 62.6601 73.9179C55.0544 77.0895 46.4035 76.5245 39.2749 72.3907ZM78.6463 53.5135C76.4842 53.1038 74.3578 52.5243 72.2868 51.7804C74.4981 47.9428 76.074 43.7727 76.9535 39.4317C78.7884 43.8842 79.3736 48.753 78.6463 53.5135ZM82.3999 31.1C81.7715 31.0992 81.1711 30.8401 80.7393 30.3835L80.7313 30.3697H80.7244C79.9838 29.5746 79.903 28.3689 80.5307 27.4821C81.1585 26.5952 82.3225 26.2706 83.3186 26.7048C84.3146 27.1389 84.8693 28.2125 84.647 29.276C84.4247 30.3396 83.4865 31.1012 82.3999 31.1Z" fill="#424242"/>
</g>
<defs>
<linearGradient id="paint0_linear_1453_3" x1="-0.242414" y1="106.994" x2="90.7089" y2="56.7629" gradientUnits="userSpaceOnUse">
<stop stop-color="#C5C5A8"/>
<stop offset="1" stop-color="#E2E1CF"/>
<stop offset="1" stop-color="#E2E1CF"/>
</linearGradient>
<clipPath id="clip0_1453_3">
<rect width="69" height="69" fill="white" transform="translate(18 15)"/>
</clipPath>
</defs>
</svg>
