<svg width="14" height="14" viewBox="0 0 14 14" fill="none" xmlns="http://www.w3.org/2000/svg">
<path d="M12.8334 2.97111C12.3123 1.90167 10.8111 1.02667 9.06503 1.53611C8.23065 1.77712 7.50267 2.29398 7.00003 3.00223C6.49739 2.29398 5.76941 1.77712 4.93503 1.53611C3.18503 1.03445 1.68781 1.90167 1.1667 2.97111C0.435585 4.46834 0.738919 6.15223 2.06892 7.97612C3.11114 9.40334 4.60059 10.85 6.76281 12.53C6.83114 12.5833 6.91532 12.6122 7.00197 12.6122C7.08863 12.6122 7.17281 12.5833 7.24114 12.53C9.39947 10.8539 10.8928 9.41889 11.935 7.97612C13.2611 6.15223 13.5645 4.46834 12.8334 2.97111Z" fill="#976464"/>
</svg>
