<svg width="105" height="99" viewBox="0 0 105 99" fill="none" xmlns="http://www.w3.org/2000/svg">
<path fill-rule="evenodd" clip-rule="evenodd" d="M53.0267 1.8034C66.433 -0.51631 81.6296 -2.06725 91.9743 6.77C102.748 15.9737 105.036 31.5607 104.432 45.7176C103.855 59.2307 98.1768 71.7428 88.7859 81.4767C79.205 91.4076 66.8258 98.9499 53.0267 98.9997C39.186 99.0498 26.7033 91.614 17.0081 81.7362C7.41372 71.9612 -1.10147 59.2914 0.729298 45.7176C2.44426 33.0023 15.7436 26.5108 25.5693 18.2602C34.0643 11.127 42.0965 3.69469 53.0267 1.8034Z" fill="url(#paint0_linear_1453_2)" fill-opacity="0.94"/>
<path d="M38.8594 67.9531C38.0899 67.9531 37.3377 68.1813 36.6979 68.6088C36.0581 69.0363 35.5594 69.644 35.2649 70.3549C34.9704 71.0658 34.8934 71.8481 35.0435 72.6028C35.1936 73.3575 35.5642 74.0507 36.1083 74.5948C36.6524 75.1389 37.3456 75.5095 38.1004 75.6596C38.8551 75.8097 39.6373 75.7327 40.3483 75.4382C41.0592 75.1437 41.6668 74.6451 42.0943 74.0053C42.5218 73.3655 42.75 72.6132 42.75 71.8438C42.7488 70.8122 42.3386 69.8233 41.6092 69.0939C40.8798 68.3646 39.8909 67.9543 38.8594 67.9531ZM38.8594 73.1406C38.6029 73.1406 38.3521 73.0646 38.1389 72.9221C37.9256 72.7796 37.7594 72.577 37.6612 72.34C37.5631 72.1031 37.5374 71.8423 37.5874 71.5907C37.6375 71.3392 37.761 71.1081 37.9423 70.9267C38.1237 70.7453 38.3548 70.6218 38.6064 70.5718C38.8579 70.5218 39.1187 70.5474 39.3557 70.6456C39.5926 70.7438 39.7952 70.91 39.9377 71.1232C40.0802 71.3365 40.1563 71.5873 40.1563 71.8438C40.1559 72.1876 40.0191 72.5172 39.776 72.7604C39.5329 73.0035 39.2032 73.1402 38.8594 73.1406Z" fill="#424242"/>
<path d="M88.1406 67.9531C87.3711 67.9531 86.6189 68.1813 85.9791 68.6088C85.3393 69.0363 84.8406 69.644 84.5462 70.3549C84.2517 71.0658 84.1746 71.8481 84.3248 72.6028C84.4749 73.3575 84.8454 74.0507 85.3895 74.5948C85.9337 75.1389 86.6269 75.5095 87.3816 75.6596C88.1363 75.8097 88.9186 75.7327 89.6295 75.4382C90.3404 75.1437 90.9481 74.6451 91.3756 74.0053C91.8031 73.3655 92.0313 72.6132 92.0313 71.8438C92.0301 70.8122 91.6198 69.8233 90.8904 69.0939C90.1611 68.3646 89.1721 67.9543 88.1406 67.9531ZM88.1406 73.1406C87.8841 73.1406 87.6334 73.0646 87.4201 72.9221C87.2069 72.7796 87.0406 72.577 86.9425 72.34C86.8443 72.1031 86.8186 71.8423 86.8687 71.5907C86.9187 71.3392 87.0422 71.1081 87.2236 70.9267C87.405 70.7453 87.636 70.6218 87.8876 70.5718C88.1392 70.5218 88.3999 70.5474 88.6369 70.6456C88.8739 70.7438 89.0764 70.91 89.2189 71.1232C89.3614 71.3365 89.4375 71.5873 89.4375 71.8438C89.4371 72.1876 89.3004 72.5172 89.0572 72.7604C88.8141 73.0035 88.4845 73.1402 88.1406 73.1406Z" fill="#424242"/>
<path d="M103.497 50.3918L91.8254 32.2356C91.7079 32.053 91.5464 31.9029 91.3558 31.7989C91.1652 31.695 90.9515 31.6405 90.7344 31.6406H75.1719V24.5078C75.1705 23.3044 74.6919 22.1506 73.8409 21.2997C72.99 20.4487 71.8362 19.9701 70.6328 19.9688H27.8359C26.6325 19.9701 25.4788 20.4487 24.6278 21.2997C23.7769 22.1506 23.2982 23.3044 23.2969 24.5078V71.8438C23.2969 72.1877 23.4335 72.5176 23.6767 72.7608C23.9199 73.004 24.2498 73.1406 24.5938 73.1406H29.8753C30.187 75.3011 31.2668 77.2768 32.9169 78.7058C34.5669 80.1348 36.6766 80.9214 38.8594 80.9214C41.0422 80.9214 43.1519 80.1348 44.8019 78.7058C46.4519 77.2768 47.5317 75.3011 47.8435 73.1406H79.1565C79.4683 75.3011 80.5481 77.2768 82.1981 78.7058C83.8481 80.1348 85.9578 80.9214 88.1406 80.9214C90.3234 80.9214 92.4331 80.1348 94.0832 78.7058C95.7332 77.2768 96.813 75.3011 97.1247 73.1406H102.406C102.75 73.1406 103.08 73.004 103.323 72.7608C103.566 72.5176 103.703 72.1877 103.703 71.8438V51.0938C103.703 50.8449 103.632 50.6013 103.497 50.3918ZM38.8594 78.3281C37.5769 78.3281 36.3232 77.9478 35.2568 77.2353C34.1905 76.5228 33.3594 75.5101 32.8686 74.3252C32.3778 73.1404 32.2494 71.8366 32.4996 70.5787C32.7498 69.3209 33.3674 68.1655 34.2742 67.2586C35.1811 66.3517 36.3365 65.7342 37.5943 65.484C38.8522 65.2338 40.156 65.3622 41.3408 65.853C42.5257 66.3438 43.5384 67.1749 44.2509 68.2412C44.9634 69.3076 45.3438 70.5613 45.3438 71.8438C45.342 73.563 44.6583 75.2113 43.4426 76.427C42.2269 77.6427 40.5786 78.3264 38.8594 78.3281ZM72.5781 70.5469H47.8435C47.5317 68.3864 46.4519 66.4107 44.8019 64.9817C43.1519 63.5527 41.0422 62.7661 38.8594 62.7661C36.6766 62.7661 34.5669 63.5527 32.9169 64.9817C31.2668 66.4107 30.187 68.3864 29.8753 70.5469H25.8906V57.5781H72.5781V70.5469ZM72.5781 54.9844H25.8906V24.5078C25.8911 23.992 26.0961 23.4975 26.4609 23.1327C26.8256 22.768 27.3201 22.5629 27.8359 22.5625H70.6328C71.1486 22.5629 71.6432 22.768 72.0079 23.1327C72.3726 23.4975 72.5777 23.992 72.5781 24.5078V54.9844ZM92.5273 38.125L100.031 49.7969H81.6562V38.125H92.5273ZM88.1406 78.3281C86.8581 78.3281 85.6045 77.9478 84.5381 77.2353C83.4717 76.5228 82.6406 75.5101 82.1498 74.3252C81.6591 73.1404 81.5306 71.8366 81.7808 70.5787C82.031 69.3209 82.6486 68.1655 83.5555 67.2586C84.4623 66.3517 85.6177 65.7342 86.8756 65.484C88.1334 65.2338 89.4372 65.3622 90.6221 65.853C91.807 66.3438 92.8197 67.1749 93.5322 68.2412C94.2447 69.3076 94.625 70.5613 94.625 71.8438C94.6233 73.563 93.9396 75.2113 92.7239 76.427C91.5082 77.6427 89.8599 78.3264 88.1406 78.3281ZM101.109 60.1719H98.5156C98.1717 60.1719 97.8418 60.0352 97.5986 59.792C97.3554 59.5488 97.2188 59.219 97.2188 58.875C97.2188 58.531 97.3554 58.2012 97.5986 57.958C97.8418 57.7148 98.1717 57.5781 98.5156 57.5781H101.109V60.1719ZM101.109 54.9844H98.5156C97.4838 54.9844 96.4942 55.3943 95.7645 56.1239C95.0349 56.8535 94.625 57.8431 94.625 58.875C94.625 59.9069 95.0349 60.8965 95.7645 61.6261C96.4942 62.3557 97.4838 62.7656 98.5156 62.7656H101.109V70.5469H97.1247C96.813 68.3864 95.7332 66.4107 94.0832 64.9817C92.4331 63.5527 90.3234 62.7661 88.1406 62.7661C85.9578 62.7661 83.8481 63.5527 82.1981 64.9817C80.5481 66.4107 79.4683 68.3864 79.1565 70.5469H75.1719V34.2344H90.026L90.8608 35.5312H80.3594C80.0154 35.5312 79.6856 35.6679 79.4423 35.9111C79.1991 36.1543 79.0625 36.4842 79.0625 36.8281V51.0938C79.0625 51.4377 79.1991 51.7676 79.4423 52.0108C79.6856 52.254 80.0154 52.3906 80.3594 52.3906H101.109V54.9844Z" fill="#424242"/>
<path d="M84.25 54.9844H80.3594C80.0154 54.9844 79.6856 55.121 79.4423 55.3642C79.1991 55.6074 79.0625 55.9373 79.0625 56.2812C79.0625 56.6252 79.1991 56.9551 79.4423 57.1983C79.6856 57.4415 80.0154 57.5781 80.3594 57.5781H84.25C84.594 57.5781 84.9238 57.4415 85.167 57.1983C85.4102 56.9551 85.5469 56.6252 85.5469 56.2812C85.5469 55.9373 85.4102 55.6074 85.167 55.3642C84.9238 55.121 84.594 54.9844 84.25 54.9844Z" fill="#424242"/>
<path d="M57.0156 62.7656H67.3906C67.7346 62.7656 68.0644 62.629 68.3077 62.3858C68.5509 62.1426 68.6875 61.8127 68.6875 61.4688C68.6875 61.1248 68.5509 60.7949 68.3077 60.5517C68.0644 60.3085 67.7346 60.1719 67.3906 60.1719H57.0156C56.6717 60.1719 56.3418 60.3085 56.0986 60.5517C55.8554 60.7949 55.7188 61.1248 55.7188 61.4688C55.7188 61.8127 55.8554 62.1426 56.0986 62.3858C56.3418 62.629 56.6717 62.7656 57.0156 62.7656Z" fill="#424242"/>
<path d="M67.3906 64.0625H63.5C63.156 64.0625 62.8262 64.1991 62.583 64.4423C62.3398 64.6856 62.2031 65.0154 62.2031 65.3594C62.2031 65.7033 62.3398 66.0332 62.583 66.2764C62.8262 66.5196 63.156 66.6562 63.5 66.6562H67.3906C67.7346 66.6562 68.0644 66.5196 68.3077 66.2764C68.5509 66.0332 68.6875 65.7033 68.6875 65.3594C68.6875 65.0154 68.5509 64.6856 68.3077 64.4423C68.0644 64.1991 67.7346 64.0625 67.3906 64.0625Z" fill="#424242"/>
<defs>
<linearGradient id="paint0_linear_1453_2" x1="0.214008" y1="105.59" x2="94.7086" y2="47.6766" gradientUnits="userSpaceOnUse">
<stop stop-color="#C5C5A8"/>
<stop offset="1" stop-color="#E2E1CF"/>
<stop offset="1" stop-color="#E2E1CF"/>
</linearGradient>
</defs>
</svg>
